<?xml version="1.0" encoding="utf-8" standalone="no"?>
<!DOCTYPE svg PUBLIC "-//W3C//DTD SVG 1.1//EN"
  "http://www.w3.org/Graphics/SVG/1.1/DTD/svg11.dtd">
<svg xmlns:xlink="http://www.w3.org/1999/xlink" width="576pt" height="288pt" viewBox="0 0 576 288" xmlns="http://www.w3.org/2000/svg" version="1.1">
 <metadata>
  <rdf:RDF xmlns:dc="http://purl.org/dc/elements/1.1/" xmlns:cc="http://creativecommons.org/ns#" xmlns:rdf="http://www.w3.org/1999/02/22-rdf-syntax-ns#">
   <cc:Work>
    <dc:type rdf:resource="http://purl.org/dc/dcmitype/StillImage"/>
    <dc:date>2025-06-24T20:46:42.096968</dc:date>
    <dc:format>image/svg+xml</dc:format>
    <dc:creator>
     <cc:Agent>
      <dc:title>Matplotlib v3.9.2, https://matplotlib.org/</dc:title>
     </cc:Agent>
    </dc:creator>
   </cc:Work>
  </rdf:RDF>
 </metadata>
 <defs>
  <style type="text/css">*{stroke-linejoin: round; stroke-linecap: butt}</style>
 </defs>
 <g id="figure_1">
  <g id="patch_1">
   <path d="M 0 288 
L 576 288 
L 576 0 
L 0 0 
L 0 288 
z
" style="fill: none"/>
  </g>
  <g id="axes_1">
   <g id="patch_2">
    <path d="M 50.87 232.398071 
L 531.43 232.398071 
L 531.43 10.8 
L 50.87 10.8 
L 50.87 232.398071 
z
" style="fill: none"/>
   </g>
   <g id="patch_3">
    <path d="M 72.713636 232.398071 
L 92.348366 232.398071 
L 92.348366 232.398071 
L 72.713636 232.398071 
z
" clip-path="url(#pbf81d92071)" style="fill: #add8e6"/>
   </g>
   <g id="patch_4">
    <path d="M 97.257048 232.398071 
L 116.891777 232.398071 
L 116.891777 232.398071 
L 97.257048 232.398071 
z
" clip-path="url(#pbf81d92071)" style="fill: #add8e6"/>
   </g>
   <g id="patch_5">
    <path d="M 121.80046 232.398071 
L 141.435189 232.398071 
L 141.435189 230.328995 
L 121.80046 230.328995 
z
" clip-path="url(#pbf81d92071)" style="fill: #add8e6"/>
   </g>
   <g id="patch_6">
    <path d="M 146.343871 232.398071 
L 165.978601 232.398071 
L 165.978601 228.259919 
L 146.343871 228.259919 
z
" clip-path="url(#pbf81d92071)" style="fill: #add8e6"/>
   </g>
   <g id="patch_7">
    <path d="M 170.887283 232.398071 
L 190.522012 232.398071 
L 190.522012 226.190843 
L 170.887283 226.190843 
z
" clip-path="url(#pbf81d92071)" style="fill: #add8e6"/>
   </g>
   <g id="patch_8">
    <path d="M 195.430695 232.398071 
L 215.065424 232.398071 
L 215.065424 217.914537 
L 195.430695 217.914537 
z
" clip-path="url(#pbf81d92071)" style="fill: #add8e6"/>
   </g>
   <g id="patch_9">
    <path d="M 219.974106 232.398071 
L 239.608836 232.398071 
L 239.608836 211.707309 
L 219.974106 211.707309 
z
" clip-path="url(#pbf81d92071)" style="fill: #add8e6"/>
   </g>
   <g id="patch_10">
    <path d="M 244.517518 232.398071 
L 264.152247 232.398071 
L 264.152247 201.361927 
L 244.517518 201.361927 
z
" clip-path="url(#pbf81d92071)" style="fill: #add8e6"/>
   </g>
   <g id="patch_11">
    <path d="M 269.06093 232.398071 
L 288.695659 232.398071 
L 288.695659 188.947469 
L 269.06093 188.947469 
z
" clip-path="url(#pbf81d92071)" style="fill: #add8e6"/>
   </g>
   <g id="patch_12">
    <path d="M 293.604341 232.398071 
L 313.23907 232.398071 
L 313.23907 174.463935 
L 293.604341 174.463935 
z
" clip-path="url(#pbf81d92071)" style="fill: #add8e6"/>
   </g>
   <g id="patch_13">
    <path d="M 318.147753 232.398071 
L 337.782482 232.398071 
L 337.782482 157.911325 
L 318.147753 157.911325 
z
" clip-path="url(#pbf81d92071)" style="fill: #add8e6"/>
   </g>
   <g id="patch_14">
    <path d="M 342.691164 232.398071 
L 362.325894 232.398071 
L 362.325894 149.63502 
L 342.691164 149.63502 
z
" clip-path="url(#pbf81d92071)" style="fill: #add8e6"/>
   </g>
   <g id="patch_15">
    <path d="M 367.234576 232.398071 
L 386.869305 232.398071 
L 386.869305 141.358714 
L 367.234576 141.358714 
z
" clip-path="url(#pbf81d92071)" style="fill: #add8e6"/>
   </g>
   <g id="patch_16">
    <path d="M 391.777988 232.398071 
L 411.412717 232.398071 
L 411.412717 126.87518 
L 391.777988 126.87518 
z
" clip-path="url(#pbf81d92071)" style="fill: #add8e6"/>
   </g>
   <g id="patch_17">
    <path d="M 416.321399 232.398071 
L 435.956129 232.398071 
L 435.956129 114.460723 
L 416.321399 114.460723 
z
" clip-path="url(#pbf81d92071)" style="fill: #add8e6"/>
   </g>
   <g id="patch_18">
    <path d="M 440.864811 232.398071 
L 460.49954 232.398071 
L 460.49954 97.908112 
L 440.864811 97.908112 
z
" clip-path="url(#pbf81d92071)" style="fill: #add8e6"/>
   </g>
   <g id="patch_19">
    <path d="M 465.408223 232.398071 
L 485.042952 232.398071 
L 485.042952 83.424578 
L 465.408223 83.424578 
z
" clip-path="url(#pbf81d92071)" style="fill: #add8e6"/>
   </g>
   <g id="patch_20">
    <path d="M 489.951634 232.398071 
L 509.586364 232.398071 
L 509.586364 58.595662 
L 489.951634 58.595662 
z
" clip-path="url(#pbf81d92071)" style="fill: #add8e6"/>
   </g>
   <g id="patch_21">
    <path d="M 72.713636 232.398071 
L 92.348366 232.398071 
L 92.348366 232.398071 
L 72.713636 232.398071 
z
" clip-path="url(#pbf81d92071)" style="fill: #1e90ff"/>
   </g>
   <g id="patch_22">
    <path d="M 97.257048 232.398071 
L 116.891777 232.398071 
L 116.891777 230.328995 
L 97.257048 230.328995 
z
" clip-path="url(#pbf81d92071)" style="fill: #1e90ff"/>
   </g>
   <g id="patch_23">
    <path d="M 121.80046 230.328995 
L 141.435189 230.328995 
L 141.435189 228.259919 
L 121.80046 228.259919 
z
" clip-path="url(#pbf81d92071)" style="fill: #1e90ff"/>
   </g>
   <g id="patch_24">
    <path d="M 146.343871 228.259919 
L 165.978601 228.259919 
L 165.978601 226.190843 
L 146.343871 226.190843 
z
" clip-path="url(#pbf81d92071)" style="fill: #1e90ff"/>
   </g>
   <g id="patch_25">
    <path d="M 170.887283 226.190843 
L 190.522012 226.190843 
L 190.522012 217.914537 
L 170.887283 217.914537 
z
" clip-path="url(#pbf81d92071)" style="fill: #1e90ff"/>
   </g>
   <g id="patch_26">
    <path d="M 195.430695 217.914537 
L 215.065424 217.914537 
L 215.065424 209.638232 
L 195.430695 209.638232 
z
" clip-path="url(#pbf81d92071)" style="fill: #1e90ff"/>
   </g>
   <g id="patch_27">
    <path d="M 219.974106 211.707309 
L 239.608836 211.707309 
L 239.608836 199.292851 
L 219.974106 199.292851 
z
" clip-path="url(#pbf81d92071)" style="fill: #1e90ff"/>
   </g>
   <g id="patch_28">
    <path d="M 244.517518 201.361927 
L 264.152247 201.361927 
L 264.152247 186.878393 
L 244.517518 186.878393 
z
" clip-path="url(#pbf81d92071)" style="fill: #1e90ff"/>
   </g>
   <g id="patch_29">
    <path d="M 269.06093 188.947469 
L 288.695659 188.947469 
L 288.695659 172.394859 
L 269.06093 172.394859 
z
" clip-path="url(#pbf81d92071)" style="fill: #1e90ff"/>
   </g>
   <g id="patch_30">
    <path d="M 293.604341 174.463935 
L 313.23907 174.463935 
L 313.23907 155.842248 
L 293.604341 155.842248 
z
" clip-path="url(#pbf81d92071)" style="fill: #1e90ff"/>
   </g>
   <g id="patch_31">
    <path d="M 318.147753 157.911325 
L 337.782482 157.911325 
L 337.782482 147.565943 
L 318.147753 147.565943 
z
" clip-path="url(#pbf81d92071)" style="fill: #1e90ff"/>
   </g>
   <g id="patch_32">
    <path d="M 342.691164 149.63502 
L 362.325894 149.63502 
L 362.325894 139.289638 
L 342.691164 139.289638 
z
" clip-path="url(#pbf81d92071)" style="fill: #1e90ff"/>
   </g>
   <g id="patch_33">
    <path d="M 367.234576 141.358714 
L 386.869305 141.358714 
L 386.869305 124.806104 
L 367.234576 124.806104 
z
" clip-path="url(#pbf81d92071)" style="fill: #1e90ff"/>
   </g>
   <g id="patch_34">
    <path d="M 391.777988 126.87518 
L 411.412717 126.87518 
L 411.412717 110.32257 
L 391.777988 110.32257 
z
" clip-path="url(#pbf81d92071)" style="fill: #1e90ff"/>
   </g>
   <g id="patch_35">
    <path d="M 416.321399 114.460723 
L 435.956129 114.460723 
L 435.956129 93.76996 
L 416.321399 93.76996 
z
" clip-path="url(#pbf81d92071)" style="fill: #1e90ff"/>
   </g>
   <g id="patch_36">
    <path d="M 440.864811 97.908112 
L 460.49954 97.908112 
L 460.49954 77.217349 
L 440.864811 77.217349 
z
" clip-path="url(#pbf81d92071)" style="fill: #1e90ff"/>
   </g>
   <g id="patch_37">
    <path d="M 465.408223 83.424578 
L 485.042952 83.424578 
L 485.042952 52.388434 
L 465.408223 52.388434 
z
" clip-path="url(#pbf81d92071)" style="fill: #1e90ff"/>
   </g>
   <g id="patch_38">
    <path d="M 489.951634 58.595662 
L 509.586364 58.595662 
L 509.586364 27.559518 
L 489.951634 27.559518 
z
" clip-path="url(#pbf81d92071)" style="fill: #1e90ff"/>
   </g>
   <g id="patch_39">
    <path d="M 72.713636 232.398071 
L 92.348366 232.398071 
L 92.348366 232.398071 
L 72.713636 232.398071 
z
" clip-path="url(#pbf81d92071)" style="fill: #ff0000"/>
   </g>
   <g id="patch_40">
    <path d="M 97.257048 230.328995 
L 116.891777 230.328995 
L 116.891777 230.328995 
L 97.257048 230.328995 
z
" clip-path="url(#pbf81d92071)" style="fill: #ff0000"/>
   </g>
   <g id="patch_41">
    <path d="M 121.80046 228.259919 
L 141.435189 228.259919 
L 141.435189 228.259919 
L 121.80046 228.259919 
z
" clip-path="url(#pbf81d92071)" style="fill: #ff0000"/>
   </g>
   <g id="patch_42">
    <path d="M 146.343871 226.190843 
L 165.978601 226.190843 
L 165.978601 226.190843 
L 146.343871 226.190843 
z
" clip-path="url(#pbf81d92071)" style="fill: #ff0000"/>
   </g>
   <g id="patch_43">
    <path d="M 170.887283 217.914537 
L 190.522012 217.914537 
L 190.522012 217.914537 
L 170.887283 217.914537 
z
" clip-path="url(#pbf81d92071)" style="fill: #ff0000"/>
   </g>
   <g id="patch_44">
    <path d="M 195.430695 209.638232 
L 215.065424 209.638232 
L 215.065424 209.638232 
L 195.430695 209.638232 
z
" clip-path="url(#pbf81d92071)" style="fill: #ff0000"/>
   </g>
   <g id="patch_45">
    <path d="M 219.974106 199.292851 
L 239.608836 199.292851 
L 239.608836 197.223774 
L 219.974106 197.223774 
z
" clip-path="url(#pbf81d92071)" style="fill: #ff0000"/>
   </g>
   <g id="patch_46">
    <path d="M 244.517518 186.878393 
L 264.152247 186.878393 
L 264.152247 184.809317 
L 244.517518 184.809317 
z
" clip-path="url(#pbf81d92071)" style="fill: #ff0000"/>
   </g>
   <g id="patch_47">
    <path d="M 269.06093 172.394859 
L 288.695659 172.394859 
L 288.695659 170.325783 
L 269.06093 170.325783 
z
" clip-path="url(#pbf81d92071)" style="fill: #ff0000"/>
   </g>
   <g id="patch_48">
    <path d="M 293.604341 155.842248 
L 313.23907 155.842248 
L 313.23907 153.773172 
L 293.604341 153.773172 
z
" clip-path="url(#pbf81d92071)" style="fill: #ff0000"/>
   </g>
   <g id="patch_49">
    <path d="M 318.147753 147.565943 
L 337.782482 147.565943 
L 337.782482 145.496867 
L 318.147753 145.496867 
z
" clip-path="url(#pbf81d92071)" style="fill: #ff0000"/>
   </g>
   <g id="patch_50">
    <path d="M 342.691164 139.289638 
L 362.325894 139.289638 
L 362.325894 137.220562 
L 342.691164 137.220562 
z
" clip-path="url(#pbf81d92071)" style="fill: #ff0000"/>
   </g>
   <g id="patch_51">
    <path d="M 367.234576 124.806104 
L 386.869305 124.806104 
L 386.869305 122.737028 
L 367.234576 122.737028 
z
" clip-path="url(#pbf81d92071)" style="fill: #ff0000"/>
   </g>
   <g id="patch_52">
    <path d="M 391.777988 110.32257 
L 411.412717 110.32257 
L 411.412717 108.253494 
L 391.777988 108.253494 
z
" clip-path="url(#pbf81d92071)" style="fill: #ff0000"/>
   </g>
   <g id="patch_53">
    <path d="M 416.321399 93.76996 
L 435.956129 93.76996 
L 435.956129 89.631807 
L 416.321399 89.631807 
z
" clip-path="url(#pbf81d92071)" style="fill: #ff0000"/>
   </g>
   <g id="patch_54">
    <path d="M 440.864811 77.217349 
L 460.49954 77.217349 
L 460.49954 73.079197 
L 440.864811 73.079197 
z
" clip-path="url(#pbf81d92071)" style="fill: #ff0000"/>
   </g>
   <g id="patch_55">
    <path d="M 465.408223 52.388434 
L 485.042952 52.388434 
L 485.042952 46.181205 
L 465.408223 46.181205 
z
" clip-path="url(#pbf81d92071)" style="fill: #ff0000"/>
   </g>
   <g id="patch_56">
    <path d="M 489.951634 27.559518 
L 509.586364 27.559518 
L 509.586364 21.352289 
L 489.951634 21.352289 
z
" clip-path="url(#pbf81d92071)" style="fill: #ff0000"/>
   </g>
   <g id="matplotlib.axis_1">
    <g id="xtick_1">
     <g id="line2d_1">
      <defs>
       <path id="m7d95081622" d="M 0 0 
L 0 3.5 
" style="stroke: #000000; stroke-width: 0.8"/>
      </defs>
      <g>
       <use xlink:href="#m7d95081622" x="82.531001" y="232.398071" style="stroke: #000000; stroke-width: 0.8"/>
      </g>
     </g>
     <g id="text_1">
      <!-- 2025-Q3 -->
      <g transform="translate(69.047911 275.639504) rotate(-45) scale(0.1 -0.1)">
       <defs>
        <path id="DejaVuSans-32" d="M 1228 531 
L 3431 531 
L 3431 0 
L 469 0 
L 469 531 
Q 828 903 1448 1529 
Q 2069 2156 2228 2338 
Q 2531 2678 2651 2914 
Q 2772 3150 2772 3378 
Q 2772 3750 2511 3984 
Q 2250 4219 1831 4219 
Q 1534 4219 1204 4116 
Q 875 4013 500 3803 
L 500 4441 
Q 881 4594 1212 4672 
Q 1544 4750 1819 4750 
Q 2544 4750 2975 4387 
Q 3406 4025 3406 3419 
Q 3406 3131 3298 2873 
Q 3191 2616 2906 2266 
Q 2828 2175 2409 1742 
Q 1991 1309 1228 531 
z
" transform="scale(0.015625)"/>
        <path id="DejaVuSans-30" d="M 2034 4250 
Q 1547 4250 1301 3770 
Q 1056 3291 1056 2328 
Q 1056 1369 1301 889 
Q 1547 409 2034 409 
Q 2525 409 2770 889 
Q 3016 1369 3016 2328 
Q 3016 3291 2770 3770 
Q 2525 4250 2034 4250 
z
M 2034 4750 
Q 2819 4750 3233 4129 
Q 3647 3509 3647 2328 
Q 3647 1150 3233 529 
Q 2819 -91 2034 -91 
Q 1250 -91 836 529 
Q 422 1150 422 2328 
Q 422 3509 836 4129 
Q 1250 4750 2034 4750 
z
" transform="scale(0.015625)"/>
        <path id="DejaVuSans-35" d="M 691 4666 
L 3169 4666 
L 3169 4134 
L 1269 4134 
L 1269 2991 
Q 1406 3038 1543 3061 
Q 1681 3084 1819 3084 
Q 2600 3084 3056 2656 
Q 3513 2228 3513 1497 
Q 3513 744 3044 326 
Q 2575 -91 1722 -91 
Q 1428 -91 1123 -41 
Q 819 9 494 109 
L 494 744 
Q 775 591 1075 516 
Q 1375 441 1709 441 
Q 2250 441 2565 725 
Q 2881 1009 2881 1497 
Q 2881 1984 2565 2268 
Q 2250 2553 1709 2553 
Q 1456 2553 1204 2497 
Q 953 2441 691 2322 
L 691 4666 
z
" transform="scale(0.015625)"/>
        <path id="DejaVuSans-2d" d="M 313 2009 
L 1997 2009 
L 1997 1497 
L 313 1497 
L 313 2009 
z
" transform="scale(0.015625)"/>
        <path id="DejaVuSans-51" d="M 2522 4238 
Q 1834 4238 1429 3725 
Q 1025 3213 1025 2328 
Q 1025 1447 1429 934 
Q 1834 422 2522 422 
Q 3209 422 3611 934 
Q 4013 1447 4013 2328 
Q 4013 3213 3611 3725 
Q 3209 4238 2522 4238 
z
M 3406 84 
L 4238 -825 
L 3475 -825 
L 2784 -78 
Q 2681 -84 2626 -87 
Q 2572 -91 2522 -91 
Q 1538 -91 948 567 
Q 359 1225 359 2328 
Q 359 3434 948 4092 
Q 1538 4750 2522 4750 
Q 3503 4750 4090 4092 
Q 4678 3434 4678 2328 
Q 4678 1516 4351 937 
Q 4025 359 3406 84 
z
" transform="scale(0.015625)"/>
        <path id="DejaVuSans-33" d="M 2597 2516 
Q 3050 2419 3304 2112 
Q 3559 1806 3559 1356 
Q 3559 666 3084 287 
Q 2609 -91 1734 -91 
Q 1441 -91 1130 -33 
Q 819 25 488 141 
L 488 750 
Q 750 597 1062 519 
Q 1375 441 1716 441 
Q 2309 441 2620 675 
Q 2931 909 2931 1356 
Q 2931 1769 2642 2001 
Q 2353 2234 1838 2234 
L 1294 2234 
L 1294 2753 
L 1863 2753 
Q 2328 2753 2575 2939 
Q 2822 3125 2822 3475 
Q 2822 3834 2567 4026 
Q 2313 4219 1838 4219 
Q 1578 4219 1281 4162 
Q 984 4106 628 3988 
L 628 4550 
Q 988 4650 1302 4700 
Q 1616 4750 1894 4750 
Q 2613 4750 3031 4423 
Q 3450 4097 3450 3541 
Q 3450 3153 3228 2886 
Q 3006 2619 2597 2516 
z
" transform="scale(0.015625)"/>
       </defs>
       <use xlink:href="#DejaVuSans-32"/>
       <use xlink:href="#DejaVuSans-30" x="63.623047"/>
       <use xlink:href="#DejaVuSans-32" x="127.246094"/>
       <use xlink:href="#DejaVuSans-35" x="190.869141"/>
       <use xlink:href="#DejaVuSans-2d" x="254.492188"/>
       <use xlink:href="#DejaVuSans-51" x="294.201172"/>
       <use xlink:href="#DejaVuSans-33" x="372.912109"/>
      </g>
     </g>
    </g>
    <g id="xtick_2">
     <g id="line2d_2">
      <g>
       <use xlink:href="#m7d95081622" x="107.074413" y="232.398071" style="stroke: #000000; stroke-width: 0.8"/>
      </g>
     </g>
     <g id="text_2">
      <!-- 2025-Q4 -->
      <g transform="translate(93.591323 275.639504) rotate(-45) scale(0.1 -0.1)">
       <defs>
        <path id="DejaVuSans-34" d="M 2419 4116 
L 825 1625 
L 2419 1625 
L 2419 4116 
z
M 2253 4666 
L 3047 4666 
L 3047 1625 
L 3713 1625 
L 3713 1100 
L 3047 1100 
L 3047 0 
L 2419 0 
L 2419 1100 
L 313 1100 
L 313 1709 
L 2253 4666 
z
" transform="scale(0.015625)"/>
       </defs>
       <use xlink:href="#DejaVuSans-32"/>
       <use xlink:href="#DejaVuSans-30" x="63.623047"/>
       <use xlink:href="#DejaVuSans-32" x="127.246094"/>
       <use xlink:href="#DejaVuSans-35" x="190.869141"/>
       <use xlink:href="#DejaVuSans-2d" x="254.492188"/>
       <use xlink:href="#DejaVuSans-51" x="294.201172"/>
       <use xlink:href="#DejaVuSans-34" x="372.912109"/>
      </g>
     </g>
    </g>
    <g id="xtick_3">
     <g id="line2d_3">
      <g>
       <use xlink:href="#m7d95081622" x="131.617824" y="232.398071" style="stroke: #000000; stroke-width: 0.8"/>
      </g>
     </g>
     <g id="text_3">
      <!-- 2026-Q1 -->
      <g transform="translate(118.134734 275.639504) rotate(-45) scale(0.1 -0.1)">
       <defs>
        <path id="DejaVuSans-36" d="M 2113 2584 
Q 1688 2584 1439 2293 
Q 1191 2003 1191 1497 
Q 1191 994 1439 701 
Q 1688 409 2113 409 
Q 2538 409 2786 701 
Q 3034 994 3034 1497 
Q 3034 2003 2786 2293 
Q 2538 2584 2113 2584 
z
M 3366 4563 
L 3366 3988 
Q 3128 4100 2886 4159 
Q 2644 4219 2406 4219 
Q 1781 4219 1451 3797 
Q 1122 3375 1075 2522 
Q 1259 2794 1537 2939 
Q 1816 3084 2150 3084 
Q 2853 3084 3261 2657 
Q 3669 2231 3669 1497 
Q 3669 778 3244 343 
Q 2819 -91 2113 -91 
Q 1303 -91 875 529 
Q 447 1150 447 2328 
Q 447 3434 972 4092 
Q 1497 4750 2381 4750 
Q 2619 4750 2861 4703 
Q 3103 4656 3366 4563 
z
" transform="scale(0.015625)"/>
        <path id="DejaVuSans-31" d="M 794 531 
L 1825 531 
L 1825 4091 
L 703 3866 
L 703 4441 
L 1819 4666 
L 2450 4666 
L 2450 531 
L 3481 531 
L 3481 0 
L 794 0 
L 794 531 
z
" transform="scale(0.015625)"/>
       </defs>
       <use xlink:href="#DejaVuSans-32"/>
       <use xlink:href="#DejaVuSans-30" x="63.623047"/>
       <use xlink:href="#DejaVuSans-32" x="127.246094"/>
       <use xlink:href="#DejaVuSans-36" x="190.869141"/>
       <use xlink:href="#DejaVuSans-2d" x="254.492188"/>
       <use xlink:href="#DejaVuSans-51" x="294.201172"/>
       <use xlink:href="#DejaVuSans-31" x="372.912109"/>
      </g>
     </g>
    </g>
    <g id="xtick_4">
     <g id="line2d_4">
      <g>
       <use xlink:href="#m7d95081622" x="156.161236" y="232.398071" style="stroke: #000000; stroke-width: 0.8"/>
      </g>
     </g>
     <g id="text_4">
      <!-- 2026-Q2 -->
      <g transform="translate(142.678146 275.639504) rotate(-45) scale(0.1 -0.1)">
       <use xlink:href="#DejaVuSans-32"/>
       <use xlink:href="#DejaVuSans-30" x="63.623047"/>
       <use xlink:href="#DejaVuSans-32" x="127.246094"/>
       <use xlink:href="#DejaVuSans-36" x="190.869141"/>
       <use xlink:href="#DejaVuSans-2d" x="254.492188"/>
       <use xlink:href="#DejaVuSans-51" x="294.201172"/>
       <use xlink:href="#DejaVuSans-32" x="372.912109"/>
      </g>
     </g>
    </g>
    <g id="xtick_5">
     <g id="line2d_5">
      <g>
       <use xlink:href="#m7d95081622" x="180.704648" y="232.398071" style="stroke: #000000; stroke-width: 0.8"/>
      </g>
     </g>
     <g id="text_5">
      <!-- 2026-Q3 -->
      <g transform="translate(167.221558 275.639504) rotate(-45) scale(0.1 -0.1)">
       <use xlink:href="#DejaVuSans-32"/>
       <use xlink:href="#DejaVuSans-30" x="63.623047"/>
       <use xlink:href="#DejaVuSans-32" x="127.246094"/>
       <use xlink:href="#DejaVuSans-36" x="190.869141"/>
       <use xlink:href="#DejaVuSans-2d" x="254.492188"/>
       <use xlink:href="#DejaVuSans-51" x="294.201172"/>
       <use xlink:href="#DejaVuSans-33" x="372.912109"/>
      </g>
     </g>
    </g>
    <g id="xtick_6">
     <g id="line2d_6">
      <g>
       <use xlink:href="#m7d95081622" x="205.248059" y="232.398071" style="stroke: #000000; stroke-width: 0.8"/>
      </g>
     </g>
     <g id="text_6">
      <!-- 2026-Q4 -->
      <g transform="translate(191.764969 275.639504) rotate(-45) scale(0.1 -0.1)">
       <use xlink:href="#DejaVuSans-32"/>
       <use xlink:href="#DejaVuSans-30" x="63.623047"/>
       <use xlink:href="#DejaVuSans-32" x="127.246094"/>
       <use xlink:href="#DejaVuSans-36" x="190.869141"/>
       <use xlink:href="#DejaVuSans-2d" x="254.492188"/>
       <use xlink:href="#DejaVuSans-51" x="294.201172"/>
       <use xlink:href="#DejaVuSans-34" x="372.912109"/>
      </g>
     </g>
    </g>
    <g id="xtick_7">
     <g id="line2d_7">
      <g>
       <use xlink:href="#m7d95081622" x="229.791471" y="232.398071" style="stroke: #000000; stroke-width: 0.8"/>
      </g>
     </g>
     <g id="text_7">
      <!-- 2027-Q1 -->
      <g transform="translate(216.308381 275.639504) rotate(-45) scale(0.1 -0.1)">
       <defs>
        <path id="DejaVuSans-37" d="M 525 4666 
L 3525 4666 
L 3525 4397 
L 1831 0 
L 1172 0 
L 2766 4134 
L 525 4134 
L 525 4666 
z
" transform="scale(0.015625)"/>
       </defs>
       <use xlink:href="#DejaVuSans-32"/>
       <use xlink:href="#DejaVuSans-30" x="63.623047"/>
       <use xlink:href="#DejaVuSans-32" x="127.246094"/>
       <use xlink:href="#DejaVuSans-37" x="190.869141"/>
       <use xlink:href="#DejaVuSans-2d" x="254.492188"/>
       <use xlink:href="#DejaVuSans-51" x="294.201172"/>
       <use xlink:href="#DejaVuSans-31" x="372.912109"/>
      </g>
     </g>
    </g>
    <g id="xtick_8">
     <g id="line2d_8">
      <g>
       <use xlink:href="#m7d95081622" x="254.334883" y="232.398071" style="stroke: #000000; stroke-width: 0.8"/>
      </g>
     </g>
     <g id="text_8">
      <!-- 2027-Q2 -->
      <g transform="translate(240.851793 275.639504) rotate(-45) scale(0.1 -0.1)">
       <use xlink:href="#DejaVuSans-32"/>
       <use xlink:href="#DejaVuSans-30" x="63.623047"/>
       <use xlink:href="#DejaVuSans-32" x="127.246094"/>
       <use xlink:href="#DejaVuSans-37" x="190.869141"/>
       <use xlink:href="#DejaVuSans-2d" x="254.492188"/>
       <use xlink:href="#DejaVuSans-51" x="294.201172"/>
       <use xlink:href="#DejaVuSans-32" x="372.912109"/>
      </g>
     </g>
    </g>
    <g id="xtick_9">
     <g id="line2d_9">
      <g>
       <use xlink:href="#m7d95081622" x="278.878294" y="232.398071" style="stroke: #000000; stroke-width: 0.8"/>
      </g>
     </g>
     <g id="text_9">
      <!-- 2027-Q3 -->
      <g transform="translate(265.395204 275.639504) rotate(-45) scale(0.1 -0.1)">
       <use xlink:href="#DejaVuSans-32"/>
       <use xlink:href="#DejaVuSans-30" x="63.623047"/>
       <use xlink:href="#DejaVuSans-32" x="127.246094"/>
       <use xlink:href="#DejaVuSans-37" x="190.869141"/>
       <use xlink:href="#DejaVuSans-2d" x="254.492188"/>
       <use xlink:href="#DejaVuSans-51" x="294.201172"/>
       <use xlink:href="#DejaVuSans-33" x="372.912109"/>
      </g>
     </g>
    </g>
    <g id="xtick_10">
     <g id="line2d_10">
      <g>
       <use xlink:href="#m7d95081622" x="303.421706" y="232.398071" style="stroke: #000000; stroke-width: 0.8"/>
      </g>
     </g>
     <g id="text_10">
      <!-- 2027-Q4 -->
      <g transform="translate(289.938616 275.639504) rotate(-45) scale(0.1 -0.1)">
       <use xlink:href="#DejaVuSans-32"/>
       <use xlink:href="#DejaVuSans-30" x="63.623047"/>
       <use xlink:href="#DejaVuSans-32" x="127.246094"/>
       <use xlink:href="#DejaVuSans-37" x="190.869141"/>
       <use xlink:href="#DejaVuSans-2d" x="254.492188"/>
       <use xlink:href="#DejaVuSans-51" x="294.201172"/>
       <use xlink:href="#DejaVuSans-34" x="372.912109"/>
      </g>
     </g>
    </g>
    <g id="xtick_11">
     <g id="line2d_11">
      <g>
       <use xlink:href="#m7d95081622" x="327.965117" y="232.398071" style="stroke: #000000; stroke-width: 0.8"/>
      </g>
     </g>
     <g id="text_11">
      <!-- 2028-Q1 -->
      <g transform="translate(314.482027 275.639504) rotate(-45) scale(0.1 -0.1)">
       <defs>
        <path id="DejaVuSans-38" d="M 2034 2216 
Q 1584 2216 1326 1975 
Q 1069 1734 1069 1313 
Q 1069 891 1326 650 
Q 1584 409 2034 409 
Q 2484 409 2743 651 
Q 3003 894 3003 1313 
Q 3003 1734 2745 1975 
Q 2488 2216 2034 2216 
z
M 1403 2484 
Q 997 2584 770 2862 
Q 544 3141 544 3541 
Q 544 4100 942 4425 
Q 1341 4750 2034 4750 
Q 2731 4750 3128 4425 
Q 3525 4100 3525 3541 
Q 3525 3141 3298 2862 
Q 3072 2584 2669 2484 
Q 3125 2378 3379 2068 
Q 3634 1759 3634 1313 
Q 3634 634 3220 271 
Q 2806 -91 2034 -91 
Q 1263 -91 848 271 
Q 434 634 434 1313 
Q 434 1759 690 2068 
Q 947 2378 1403 2484 
z
M 1172 3481 
Q 1172 3119 1398 2916 
Q 1625 2713 2034 2713 
Q 2441 2713 2670 2916 
Q 2900 3119 2900 3481 
Q 2900 3844 2670 4047 
Q 2441 4250 2034 4250 
Q 1625 4250 1398 4047 
Q 1172 3844 1172 3481 
z
" transform="scale(0.015625)"/>
       </defs>
       <use xlink:href="#DejaVuSans-32"/>
       <use xlink:href="#DejaVuSans-30" x="63.623047"/>
       <use xlink:href="#DejaVuSans-32" x="127.246094"/>
       <use xlink:href="#DejaVuSans-38" x="190.869141"/>
       <use xlink:href="#DejaVuSans-2d" x="254.492188"/>
       <use xlink:href="#DejaVuSans-51" x="294.201172"/>
       <use xlink:href="#DejaVuSans-31" x="372.912109"/>
      </g>
     </g>
    </g>
    <g id="xtick_12">
     <g id="line2d_12">
      <g>
       <use xlink:href="#m7d95081622" x="352.508529" y="232.398071" style="stroke: #000000; stroke-width: 0.8"/>
      </g>
     </g>
     <g id="text_12">
      <!-- 2028-Q2 -->
      <g transform="translate(339.025439 275.639504) rotate(-45) scale(0.1 -0.1)">
       <use xlink:href="#DejaVuSans-32"/>
       <use xlink:href="#DejaVuSans-30" x="63.623047"/>
       <use xlink:href="#DejaVuSans-32" x="127.246094"/>
       <use xlink:href="#DejaVuSans-38" x="190.869141"/>
       <use xlink:href="#DejaVuSans-2d" x="254.492188"/>
       <use xlink:href="#DejaVuSans-51" x="294.201172"/>
       <use xlink:href="#DejaVuSans-32" x="372.912109"/>
      </g>
     </g>
    </g>
    <g id="xtick_13">
     <g id="line2d_13">
      <g>
       <use xlink:href="#m7d95081622" x="377.051941" y="232.398071" style="stroke: #000000; stroke-width: 0.8"/>
      </g>
     </g>
     <g id="text_13">
      <!-- 2028-Q3 -->
      <g transform="translate(363.568851 275.639504) rotate(-45) scale(0.1 -0.1)">
       <use xlink:href="#DejaVuSans-32"/>
       <use xlink:href="#DejaVuSans-30" x="63.623047"/>
       <use xlink:href="#DejaVuSans-32" x="127.246094"/>
       <use xlink:href="#DejaVuSans-38" x="190.869141"/>
       <use xlink:href="#DejaVuSans-2d" x="254.492188"/>
       <use xlink:href="#DejaVuSans-51" x="294.201172"/>
       <use xlink:href="#DejaVuSans-33" x="372.912109"/>
      </g>
     </g>
    </g>
    <g id="xtick_14">
     <g id="line2d_14">
      <g>
       <use xlink:href="#m7d95081622" x="401.595352" y="232.398071" style="stroke: #000000; stroke-width: 0.8"/>
      </g>
     </g>
     <g id="text_14">
      <!-- 2028-Q4 -->
      <g transform="translate(388.112262 275.639504) rotate(-45) scale(0.1 -0.1)">
       <use xlink:href="#DejaVuSans-32"/>
       <use xlink:href="#DejaVuSans-30" x="63.623047"/>
       <use xlink:href="#DejaVuSans-32" x="127.246094"/>
       <use xlink:href="#DejaVuSans-38" x="190.869141"/>
       <use xlink:href="#DejaVuSans-2d" x="254.492188"/>
       <use xlink:href="#DejaVuSans-51" x="294.201172"/>
       <use xlink:href="#DejaVuSans-34" x="372.912109"/>
      </g>
     </g>
    </g>
    <g id="xtick_15">
     <g id="line2d_15">
      <g>
       <use xlink:href="#m7d95081622" x="426.138764" y="232.398071" style="stroke: #000000; stroke-width: 0.8"/>
      </g>
     </g>
     <g id="text_15">
      <!-- 2029-Q1 -->
      <g transform="translate(412.655674 275.639504) rotate(-45) scale(0.1 -0.1)">
       <defs>
        <path id="DejaVuSans-39" d="M 703 97 
L 703 672 
Q 941 559 1184 500 
Q 1428 441 1663 441 
Q 2288 441 2617 861 
Q 2947 1281 2994 2138 
Q 2813 1869 2534 1725 
Q 2256 1581 1919 1581 
Q 1219 1581 811 2004 
Q 403 2428 403 3163 
Q 403 3881 828 4315 
Q 1253 4750 1959 4750 
Q 2769 4750 3195 4129 
Q 3622 3509 3622 2328 
Q 3622 1225 3098 567 
Q 2575 -91 1691 -91 
Q 1453 -91 1209 -44 
Q 966 3 703 97 
z
M 1959 2075 
Q 2384 2075 2632 2365 
Q 2881 2656 2881 3163 
Q 2881 3666 2632 3958 
Q 2384 4250 1959 4250 
Q 1534 4250 1286 3958 
Q 1038 3666 1038 3163 
Q 1038 2656 1286 2365 
Q 1534 2075 1959 2075 
z
" transform="scale(0.015625)"/>
       </defs>
       <use xlink:href="#DejaVuSans-32"/>
       <use xlink:href="#DejaVuSans-30" x="63.623047"/>
       <use xlink:href="#DejaVuSans-32" x="127.246094"/>
       <use xlink:href="#DejaVuSans-39" x="190.869141"/>
       <use xlink:href="#DejaVuSans-2d" x="254.492188"/>
       <use xlink:href="#DejaVuSans-51" x="294.201172"/>
       <use xlink:href="#DejaVuSans-31" x="372.912109"/>
      </g>
     </g>
    </g>
    <g id="xtick_16">
     <g id="line2d_16">
      <g>
       <use xlink:href="#m7d95081622" x="450.682176" y="232.398071" style="stroke: #000000; stroke-width: 0.8"/>
      </g>
     </g>
     <g id="text_16">
      <!-- 2029-Q2 -->
      <g transform="translate(437.199086 275.639504) rotate(-45) scale(0.1 -0.1)">
       <use xlink:href="#DejaVuSans-32"/>
       <use xlink:href="#DejaVuSans-30" x="63.623047"/>
       <use xlink:href="#DejaVuSans-32" x="127.246094"/>
       <use xlink:href="#DejaVuSans-39" x="190.869141"/>
       <use xlink:href="#DejaVuSans-2d" x="254.492188"/>
       <use xlink:href="#DejaVuSans-51" x="294.201172"/>
       <use xlink:href="#DejaVuSans-32" x="372.912109"/>
      </g>
     </g>
    </g>
    <g id="xtick_17">
     <g id="line2d_17">
      <g>
       <use xlink:href="#m7d95081622" x="475.225587" y="232.398071" style="stroke: #000000; stroke-width: 0.8"/>
      </g>
     </g>
     <g id="text_17">
      <!-- 2029-Q3 -->
      <g transform="translate(461.742497 275.639504) rotate(-45) scale(0.1 -0.1)">
       <use xlink:href="#DejaVuSans-32"/>
       <use xlink:href="#DejaVuSans-30" x="63.623047"/>
       <use xlink:href="#DejaVuSans-32" x="127.246094"/>
       <use xlink:href="#DejaVuSans-39" x="190.869141"/>
       <use xlink:href="#DejaVuSans-2d" x="254.492188"/>
       <use xlink:href="#DejaVuSans-51" x="294.201172"/>
       <use xlink:href="#DejaVuSans-33" x="372.912109"/>
      </g>
     </g>
    </g>
    <g id="xtick_18">
     <g id="line2d_18">
      <g>
       <use xlink:href="#m7d95081622" x="499.768999" y="232.398071" style="stroke: #000000; stroke-width: 0.8"/>
      </g>
     </g>
     <g id="text_18">
      <!-- 2029-Q4 -->
      <g transform="translate(486.285909 275.639504) rotate(-45) scale(0.1 -0.1)">
       <use xlink:href="#DejaVuSans-32"/>
       <use xlink:href="#DejaVuSans-30" x="63.623047"/>
       <use xlink:href="#DejaVuSans-32" x="127.246094"/>
       <use xlink:href="#DejaVuSans-39" x="190.869141"/>
       <use xlink:href="#DejaVuSans-2d" x="254.492188"/>
       <use xlink:href="#DejaVuSans-51" x="294.201172"/>
       <use xlink:href="#DejaVuSans-34" x="372.912109"/>
      </g>
     </g>
    </g>
   </g>
   <g id="matplotlib.axis_2">
    <g id="ytick_1">
     <g id="line2d_19">
      <defs>
       <path id="m785c60d44a" d="M 0 0 
L -3.5 0 
" style="stroke: #000000; stroke-width: 0.8"/>
      </defs>
      <g>
       <use xlink:href="#m785c60d44a" x="50.87" y="232.398071" style="stroke: #000000; stroke-width: 0.8"/>
      </g>
     </g>
     <g id="text_19">
      <!-- 0 -->
      <g transform="translate(37.5075 236.19729) scale(0.1 -0.1)">
       <use xlink:href="#DejaVuSans-30"/>
      </g>
     </g>
    </g>
    <g id="ytick_2">
     <g id="line2d_20">
      <g>
       <use xlink:href="#m785c60d44a" x="50.87" y="191.016546" style="stroke: #000000; stroke-width: 0.8"/>
      </g>
     </g>
     <g id="text_20">
      <!-- 20 -->
      <g transform="translate(31.145 194.815764) scale(0.1 -0.1)">
       <use xlink:href="#DejaVuSans-32"/>
       <use xlink:href="#DejaVuSans-30" x="63.623047"/>
      </g>
     </g>
    </g>
    <g id="ytick_3">
     <g id="line2d_21">
      <g>
       <use xlink:href="#m785c60d44a" x="50.87" y="149.63502" style="stroke: #000000; stroke-width: 0.8"/>
      </g>
     </g>
     <g id="text_21">
      <!-- 40 -->
      <g transform="translate(31.145 153.434238) scale(0.1 -0.1)">
       <use xlink:href="#DejaVuSans-34"/>
       <use xlink:href="#DejaVuSans-30" x="63.623047"/>
      </g>
     </g>
    </g>
    <g id="ytick_4">
     <g id="line2d_22">
      <g>
       <use xlink:href="#m785c60d44a" x="50.87" y="108.253494" style="stroke: #000000; stroke-width: 0.8"/>
      </g>
     </g>
     <g id="text_22">
      <!-- 60 -->
      <g transform="translate(31.145 112.052712) scale(0.1 -0.1)">
       <use xlink:href="#DejaVuSans-36"/>
       <use xlink:href="#DejaVuSans-30" x="63.623047"/>
      </g>
     </g>
    </g>
    <g id="ytick_5">
     <g id="line2d_23">
      <g>
       <use xlink:href="#m785c60d44a" x="50.87" y="66.871968" style="stroke: #000000; stroke-width: 0.8"/>
      </g>
     </g>
     <g id="text_23">
      <!-- 80 -->
      <g transform="translate(31.145 70.671186) scale(0.1 -0.1)">
       <use xlink:href="#DejaVuSans-38"/>
       <use xlink:href="#DejaVuSans-30" x="63.623047"/>
      </g>
     </g>
    </g>
    <g id="ytick_6">
     <g id="line2d_24">
      <g>
       <use xlink:href="#m785c60d44a" x="50.87" y="25.490442" style="stroke: #000000; stroke-width: 0.8"/>
      </g>
     </g>
     <g id="text_24">
      <!-- 100 -->
      <g transform="translate(24.7825 29.28966) scale(0.1 -0.1)">
       <use xlink:href="#DejaVuSans-31"/>
       <use xlink:href="#DejaVuSans-30" x="63.623047"/>
       <use xlink:href="#DejaVuSans-30" x="127.246094"/>
      </g>
     </g>
    </g>
    <g id="text_25">
     <!-- Amount -->
     <g style="fill: #0000ff" transform="translate(18.702813 141.246692) rotate(-90) scale(0.1 -0.1)">
      <defs>
       <path id="DejaVuSans-41" d="M 2188 4044 
L 1331 1722 
L 3047 1722 
L 2188 4044 
z
M 1831 4666 
L 2547 4666 
L 4325 0 
L 3669 0 
L 3244 1197 
L 1141 1197 
L 716 0 
L 50 0 
L 1831 4666 
z
" transform="scale(0.015625)"/>
       <path id="DejaVuSans-6d" d="M 3328 2828 
Q 3544 3216 3844 3400 
Q 4144 3584 4550 3584 
Q 5097 3584 5394 3201 
Q 5691 2819 5691 2113 
L 5691 0 
L 5113 0 
L 5113 2094 
Q 5113 2597 4934 2840 
Q 4756 3084 4391 3084 
Q 3944 3084 3684 2787 
Q 3425 2491 3425 1978 
L 3425 0 
L 2847 0 
L 2847 2094 
Q 2847 2600 2669 2842 
Q 2491 3084 2119 3084 
Q 1678 3084 1418 2786 
Q 1159 2488 1159 1978 
L 1159 0 
L 581 0 
L 581 3500 
L 1159 3500 
L 1159 2956 
Q 1356 3278 1631 3431 
Q 1906 3584 2284 3584 
Q 2666 3584 2933 3390 
Q 3200 3197 3328 2828 
z
" transform="scale(0.015625)"/>
       <path id="DejaVuSans-6f" d="M 1959 3097 
Q 1497 3097 1228 2736 
Q 959 2375 959 1747 
Q 959 1119 1226 758 
Q 1494 397 1959 397 
Q 2419 397 2687 759 
Q 2956 1122 2956 1747 
Q 2956 2369 2687 2733 
Q 2419 3097 1959 3097 
z
M 1959 3584 
Q 2709 3584 3137 3096 
Q 3566 2609 3566 1747 
Q 3566 888 3137 398 
Q 2709 -91 1959 -91 
Q 1206 -91 779 398 
Q 353 888 353 1747 
Q 353 2609 779 3096 
Q 1206 3584 1959 3584 
z
" transform="scale(0.015625)"/>
       <path id="DejaVuSans-75" d="M 544 1381 
L 544 3500 
L 1119 3500 
L 1119 1403 
Q 1119 906 1312 657 
Q 1506 409 1894 409 
Q 2359 409 2629 706 
Q 2900 1003 2900 1516 
L 2900 3500 
L 3475 3500 
L 3475 0 
L 2900 0 
L 2900 538 
Q 2691 219 2414 64 
Q 2138 -91 1772 -91 
Q 1169 -91 856 284 
Q 544 659 544 1381 
z
M 1991 3584 
L 1991 3584 
z
" transform="scale(0.015625)"/>
       <path id="DejaVuSans-6e" d="M 3513 2113 
L 3513 0 
L 2938 0 
L 2938 2094 
Q 2938 2591 2744 2837 
Q 2550 3084 2163 3084 
Q 1697 3084 1428 2787 
Q 1159 2491 1159 1978 
L 1159 0 
L 581 0 
L 581 3500 
L 1159 3500 
L 1159 2956 
Q 1366 3272 1645 3428 
Q 1925 3584 2291 3584 
Q 2894 3584 3203 3211 
Q 3513 2838 3513 2113 
z
" transform="scale(0.015625)"/>
       <path id="DejaVuSans-74" d="M 1172 4494 
L 1172 3500 
L 2356 3500 
L 2356 3053 
L 1172 3053 
L 1172 1153 
Q 1172 725 1289 603 
Q 1406 481 1766 481 
L 2356 481 
L 2356 0 
L 1766 0 
Q 1100 0 847 248 
Q 594 497 594 1153 
L 594 3053 
L 172 3053 
L 172 3500 
L 594 3500 
L 594 4494 
L 1172 4494 
z
" transform="scale(0.015625)"/>
      </defs>
      <use xlink:href="#DejaVuSans-41"/>
      <use xlink:href="#DejaVuSans-6d" x="68.408203"/>
      <use xlink:href="#DejaVuSans-6f" x="165.820312"/>
      <use xlink:href="#DejaVuSans-75" x="227.001953"/>
      <use xlink:href="#DejaVuSans-6e" x="290.380859"/>
      <use xlink:href="#DejaVuSans-74" x="353.759766"/>
     </g>
    </g>
   </g>
  </g>
  <g id="axes_2">
   <g id="PolyCollection_1"/>
   <g id="PolyCollection_2"/>
   <g id="matplotlib.axis_3">
    <g id="ytick_7">
     <g id="line2d_25">
      <defs>
       <path id="mdc480bf8b7" d="M 0 0 
L 3.5 0 
" style="stroke: #000000; stroke-width: 0.8"/>
      </defs>
      <g>
       <use xlink:href="#mdc480bf8b7" x="531.43" y="222.325432" style="stroke: #000000; stroke-width: 0.8"/>
      </g>
     </g>
     <g id="text_26">
      <!-- 0 -->
      <g transform="translate(538.43 226.124651) scale(0.1 -0.1)">
       <use xlink:href="#DejaVuSans-30"/>
      </g>
     </g>
    </g>
    <g id="ytick_8">
     <g id="line2d_26">
      <g>
       <use xlink:href="#mdc480bf8b7" x="531.43" y="182.034873" style="stroke: #000000; stroke-width: 0.8"/>
      </g>
     </g>
     <g id="text_27">
      <!-- 2 -->
      <g transform="translate(538.43 185.834092) scale(0.1 -0.1)">
       <use xlink:href="#DejaVuSans-32"/>
      </g>
     </g>
    </g>
    <g id="ytick_9">
     <g id="line2d_27">
      <g>
       <use xlink:href="#mdc480bf8b7" x="531.43" y="141.744315" style="stroke: #000000; stroke-width: 0.8"/>
      </g>
     </g>
     <g id="text_28">
      <!-- 4 -->
      <g transform="translate(538.43 145.543534) scale(0.1 -0.1)">
       <use xlink:href="#DejaVuSans-34"/>
      </g>
     </g>
    </g>
    <g id="ytick_10">
     <g id="line2d_28">
      <g>
       <use xlink:href="#mdc480bf8b7" x="531.43" y="101.453757" style="stroke: #000000; stroke-width: 0.8"/>
      </g>
     </g>
     <g id="text_29">
      <!-- 6 -->
      <g transform="translate(538.43 105.252975) scale(0.1 -0.1)">
       <use xlink:href="#DejaVuSans-36"/>
      </g>
     </g>
    </g>
    <g id="ytick_11">
     <g id="line2d_29">
      <g>
       <use xlink:href="#mdc480bf8b7" x="531.43" y="61.163198" style="stroke: #000000; stroke-width: 0.8"/>
      </g>
     </g>
     <g id="text_30">
      <!-- 8 -->
      <g transform="translate(538.43 64.962417) scale(0.1 -0.1)">
       <use xlink:href="#DejaVuSans-38"/>
      </g>
     </g>
    </g>
    <g id="ytick_12">
     <g id="line2d_30">
      <g>
       <use xlink:href="#mdc480bf8b7" x="531.43" y="20.87264" style="stroke: #000000; stroke-width: 0.8"/>
      </g>
     </g>
     <g id="text_31">
      <!-- 10 -->
      <g transform="translate(538.43 24.671858) scale(0.1 -0.1)">
       <use xlink:href="#DejaVuSans-31"/>
       <use xlink:href="#DejaVuSans-30" x="63.623047"/>
      </g>
     </g>
    </g>
    <g id="text_32">
     <!-- Costs (EUR) -->
     <g style="fill: #8b0000" transform="translate(562.753438 151.102942) rotate(-90) scale(0.1 -0.1)">
      <defs>
       <path id="DejaVuSans-43" d="M 4122 4306 
L 4122 3641 
Q 3803 3938 3442 4084 
Q 3081 4231 2675 4231 
Q 1875 4231 1450 3742 
Q 1025 3253 1025 2328 
Q 1025 1406 1450 917 
Q 1875 428 2675 428 
Q 3081 428 3442 575 
Q 3803 722 4122 1019 
L 4122 359 
Q 3791 134 3420 21 
Q 3050 -91 2638 -91 
Q 1578 -91 968 557 
Q 359 1206 359 2328 
Q 359 3453 968 4101 
Q 1578 4750 2638 4750 
Q 3056 4750 3426 4639 
Q 3797 4528 4122 4306 
z
" transform="scale(0.015625)"/>
       <path id="DejaVuSans-73" d="M 2834 3397 
L 2834 2853 
Q 2591 2978 2328 3040 
Q 2066 3103 1784 3103 
Q 1356 3103 1142 2972 
Q 928 2841 928 2578 
Q 928 2378 1081 2264 
Q 1234 2150 1697 2047 
L 1894 2003 
Q 2506 1872 2764 1633 
Q 3022 1394 3022 966 
Q 3022 478 2636 193 
Q 2250 -91 1575 -91 
Q 1294 -91 989 -36 
Q 684 19 347 128 
L 347 722 
Q 666 556 975 473 
Q 1284 391 1588 391 
Q 1994 391 2212 530 
Q 2431 669 2431 922 
Q 2431 1156 2273 1281 
Q 2116 1406 1581 1522 
L 1381 1569 
Q 847 1681 609 1914 
Q 372 2147 372 2553 
Q 372 3047 722 3315 
Q 1072 3584 1716 3584 
Q 2034 3584 2315 3537 
Q 2597 3491 2834 3397 
z
" transform="scale(0.015625)"/>
       <path id="DejaVuSans-20" transform="scale(0.015625)"/>
       <path id="DejaVuSans-28" d="M 1984 4856 
Q 1566 4138 1362 3434 
Q 1159 2731 1159 2009 
Q 1159 1288 1364 580 
Q 1569 -128 1984 -844 
L 1484 -844 
Q 1016 -109 783 600 
Q 550 1309 550 2009 
Q 550 2706 781 3412 
Q 1013 4119 1484 4856 
L 1984 4856 
z
" transform="scale(0.015625)"/>
       <path id="DejaVuSans-45" d="M 628 4666 
L 3578 4666 
L 3578 4134 
L 1259 4134 
L 1259 2753 
L 3481 2753 
L 3481 2222 
L 1259 2222 
L 1259 531 
L 3634 531 
L 3634 0 
L 628 0 
L 628 4666 
z
" transform="scale(0.015625)"/>
       <path id="DejaVuSans-55" d="M 556 4666 
L 1191 4666 
L 1191 1831 
Q 1191 1081 1462 751 
Q 1734 422 2344 422 
Q 2950 422 3222 751 
Q 3494 1081 3494 1831 
L 3494 4666 
L 4128 4666 
L 4128 1753 
Q 4128 841 3676 375 
Q 3225 -91 2344 -91 
Q 1459 -91 1007 375 
Q 556 841 556 1753 
L 556 4666 
z
" transform="scale(0.015625)"/>
       <path id="DejaVuSans-52" d="M 2841 2188 
Q 3044 2119 3236 1894 
Q 3428 1669 3622 1275 
L 4263 0 
L 3584 0 
L 2988 1197 
Q 2756 1666 2539 1819 
Q 2322 1972 1947 1972 
L 1259 1972 
L 1259 0 
L 628 0 
L 628 4666 
L 2053 4666 
Q 2853 4666 3247 4331 
Q 3641 3997 3641 3322 
Q 3641 2881 3436 2590 
Q 3231 2300 2841 2188 
z
M 1259 4147 
L 1259 2491 
L 2053 2491 
Q 2509 2491 2742 2702 
Q 2975 2913 2975 3322 
Q 2975 3731 2742 3939 
Q 2509 4147 2053 4147 
L 1259 4147 
z
" transform="scale(0.015625)"/>
       <path id="DejaVuSans-29" d="M 513 4856 
L 1013 4856 
Q 1481 4119 1714 3412 
Q 1947 2706 1947 2009 
Q 1947 1309 1714 600 
Q 1481 -109 1013 -844 
L 513 -844 
Q 928 -128 1133 580 
Q 1338 1288 1338 2009 
Q 1338 2731 1133 3434 
Q 928 4138 513 4856 
z
" transform="scale(0.015625)"/>
      </defs>
      <use xlink:href="#DejaVuSans-43"/>
      <use xlink:href="#DejaVuSans-6f" x="69.824219"/>
      <use xlink:href="#DejaVuSans-73" x="131.005859"/>
      <use xlink:href="#DejaVuSans-74" x="183.105469"/>
      <use xlink:href="#DejaVuSans-73" x="222.314453"/>
      <use xlink:href="#DejaVuSans-20" x="274.414062"/>
      <use xlink:href="#DejaVuSans-28" x="306.201172"/>
      <use xlink:href="#DejaVuSans-45" x="345.214844"/>
      <use xlink:href="#DejaVuSans-55" x="408.398438"/>
      <use xlink:href="#DejaVuSans-52" x="481.591797"/>
      <use xlink:href="#DejaVuSans-29" x="551.074219"/>
     </g>
    </g>
   </g>
   <g id="line2d_31">
    <path d="M 82.531001 222.325432 
L 107.074413 222.325432 
L 131.617824 202.180153 
L 156.161236 202.180153 
L 180.704648 212.252792 
L 205.248059 212.252792 
L 229.791471 212.252792 
L 254.334883 212.252792 
L 278.878294 121.599036 
L 303.421706 212.252792 
L 327.965117 212.252792 
L 352.508529 212.252792 
L 377.051941 212.252792 
L 401.595352 20.87264 
L 426.138764 202.180153 
L 450.682176 202.180153 
L 475.225587 202.180153 
L 499.768999 202.180153 
" clip-path="url(#pbf81d92071)" style="fill: none; stroke: #8b0000; stroke-width: 1.5; stroke-linecap: square"/>
    <defs>
     <path id="m36af1f0902" d="M 0 3 
C 0.795609 3 1.55874 2.683901 2.12132 2.12132 
C 2.683901 1.55874 3 0.795609 3 0 
C 3 -0.795609 2.683901 -1.55874 2.12132 -2.12132 
C 1.55874 -2.683901 0.795609 -3 0 -3 
C -0.795609 -3 -1.55874 -2.683901 -2.12132 -2.12132 
C -2.683901 -1.55874 -3 -0.795609 -3 0 
C -3 0.795609 -2.683901 1.55874 -2.12132 2.12132 
C -1.55874 2.683901 -0.795609 3 0 3 
z
" style="stroke: #ffffff; stroke-width: 0.75"/>
    </defs>
    <g clip-path="url(#pbf81d92071)">
     <use xlink:href="#m36af1f0902" x="82.531001" y="222.325432" style="fill: #8b0000; stroke: #ffffff; stroke-width: 0.75"/>
     <use xlink:href="#m36af1f0902" x="107.074413" y="222.325432" style="fill: #8b0000; stroke: #ffffff; stroke-width: 0.75"/>
     <use xlink:href="#m36af1f0902" x="131.617824" y="202.180153" style="fill: #8b0000; stroke: #ffffff; stroke-width: 0.75"/>
     <use xlink:href="#m36af1f0902" x="156.161236" y="202.180153" style="fill: #8b0000; stroke: #ffffff; stroke-width: 0.75"/>
     <use xlink:href="#m36af1f0902" x="180.704648" y="212.252792" style="fill: #8b0000; stroke: #ffffff; stroke-width: 0.75"/>
     <use xlink:href="#m36af1f0902" x="205.248059" y="212.252792" style="fill: #8b0000; stroke: #ffffff; stroke-width: 0.75"/>
     <use xlink:href="#m36af1f0902" x="229.791471" y="212.252792" style="fill: #8b0000; stroke: #ffffff; stroke-width: 0.75"/>
     <use xlink:href="#m36af1f0902" x="254.334883" y="212.252792" style="fill: #8b0000; stroke: #ffffff; stroke-width: 0.75"/>
     <use xlink:href="#m36af1f0902" x="278.878294" y="121.599036" style="fill: #8b0000; stroke: #ffffff; stroke-width: 0.75"/>
     <use xlink:href="#m36af1f0902" x="303.421706" y="212.252792" style="fill: #8b0000; stroke: #ffffff; stroke-width: 0.75"/>
     <use xlink:href="#m36af1f0902" x="327.965117" y="212.252792" style="fill: #8b0000; stroke: #ffffff; stroke-width: 0.75"/>
     <use xlink:href="#m36af1f0902" x="352.508529" y="212.252792" style="fill: #8b0000; stroke: #ffffff; stroke-width: 0.75"/>
     <use xlink:href="#m36af1f0902" x="377.051941" y="212.252792" style="fill: #8b0000; stroke: #ffffff; stroke-width: 0.75"/>
     <use xlink:href="#m36af1f0902" x="401.595352" y="20.87264" style="fill: #8b0000; stroke: #ffffff; stroke-width: 0.75"/>
     <use xlink:href="#m36af1f0902" x="426.138764" y="202.180153" style="fill: #8b0000; stroke: #ffffff; stroke-width: 0.75"/>
     <use xlink:href="#m36af1f0902" x="450.682176" y="202.180153" style="fill: #8b0000; stroke: #ffffff; stroke-width: 0.75"/>
     <use xlink:href="#m36af1f0902" x="475.225587" y="202.180153" style="fill: #8b0000; stroke: #ffffff; stroke-width: 0.75"/>
     <use xlink:href="#m36af1f0902" x="499.768999" y="202.180153" style="fill: #8b0000; stroke: #ffffff; stroke-width: 0.75"/>
    </g>
   </g>
   <g id="line2d_32">
    <path d="M 82.531001 222.325432 
L 107.074413 220.41163 
L 131.617824 220.41163 
L 156.161236 220.41163 
L 180.704648 214.670226 
L 205.248059 214.670226 
L 229.791471 210.842623 
L 254.334883 208.928821 
L 278.878294 207.01502 
L 303.421706 205.101218 
L 327.965117 212.756424 
L 352.508529 212.756424 
L 377.051941 207.01502 
L 401.595352 207.01502 
L 426.138764 203.187417 
L 450.682176 203.187417 
L 475.225587 193.618409 
L 499.768999 193.618409 
" clip-path="url(#pbf81d92071)" style="fill: none; stroke: #008000; stroke-width: 1.5; stroke-linecap: square"/>
    <defs>
     <path id="m5eb1568896" d="M 0 3 
C 0.795609 3 1.55874 2.683901 2.12132 2.12132 
C 2.683901 1.55874 3 0.795609 3 0 
C 3 -0.795609 2.683901 -1.55874 2.12132 -2.12132 
C 1.55874 -2.683901 0.795609 -3 0 -3 
C -0.795609 -3 -1.55874 -2.683901 -2.12132 -2.12132 
C -2.683901 -1.55874 -3 -0.795609 -3 0 
C -3 0.795609 -2.683901 1.55874 -2.12132 2.12132 
C -1.55874 2.683901 -0.795609 3 0 3 
z
" style="stroke: #ffffff; stroke-width: 0.75"/>
    </defs>
    <g clip-path="url(#pbf81d92071)">
     <use xlink:href="#m5eb1568896" x="82.531001" y="222.325432" style="fill: #008000; stroke: #ffffff; stroke-width: 0.75"/>
     <use xlink:href="#m5eb1568896" x="107.074413" y="220.41163" style="fill: #008000; stroke: #ffffff; stroke-width: 0.75"/>
     <use xlink:href="#m5eb1568896" x="131.617824" y="220.41163" style="fill: #008000; stroke: #ffffff; stroke-width: 0.75"/>
     <use xlink:href="#m5eb1568896" x="156.161236" y="220.41163" style="fill: #008000; stroke: #ffffff; stroke-width: 0.75"/>
     <use xlink:href="#m5eb1568896" x="180.704648" y="214.670226" style="fill: #008000; stroke: #ffffff; stroke-width: 0.75"/>
     <use xlink:href="#m5eb1568896" x="205.248059" y="214.670226" style="fill: #008000; stroke: #ffffff; stroke-width: 0.75"/>
     <use xlink:href="#m5eb1568896" x="229.791471" y="210.842623" style="fill: #008000; stroke: #ffffff; stroke-width: 0.75"/>
     <use xlink:href="#m5eb1568896" x="254.334883" y="208.928821" style="fill: #008000; stroke: #ffffff; stroke-width: 0.75"/>
     <use xlink:href="#m5eb1568896" x="278.878294" y="207.01502" style="fill: #008000; stroke: #ffffff; stroke-width: 0.75"/>
     <use xlink:href="#m5eb1568896" x="303.421706" y="205.101218" style="fill: #008000; stroke: #ffffff; stroke-width: 0.75"/>
     <use xlink:href="#m5eb1568896" x="327.965117" y="212.756424" style="fill: #008000; stroke: #ffffff; stroke-width: 0.75"/>
     <use xlink:href="#m5eb1568896" x="352.508529" y="212.756424" style="fill: #008000; stroke: #ffffff; stroke-width: 0.75"/>
     <use xlink:href="#m5eb1568896" x="377.051941" y="207.01502" style="fill: #008000; stroke: #ffffff; stroke-width: 0.75"/>
     <use xlink:href="#m5eb1568896" x="401.595352" y="207.01502" style="fill: #008000; stroke: #ffffff; stroke-width: 0.75"/>
     <use xlink:href="#m5eb1568896" x="426.138764" y="203.187417" style="fill: #008000; stroke: #ffffff; stroke-width: 0.75"/>
     <use xlink:href="#m5eb1568896" x="450.682176" y="203.187417" style="fill: #008000; stroke: #ffffff; stroke-width: 0.75"/>
     <use xlink:href="#m5eb1568896" x="475.225587" y="193.618409" style="fill: #008000; stroke: #ffffff; stroke-width: 0.75"/>
     <use xlink:href="#m5eb1568896" x="499.768999" y="193.618409" style="fill: #008000; stroke: #ffffff; stroke-width: 0.75"/>
    </g>
   </g>
   <g id="legend_1">
    <g id="patch_57">
     <path d="M 57.87 92.190625 
L 186.440313 92.190625 
Q 188.440313 92.190625 188.440313 90.190625 
L 188.440313 17.8 
Q 188.440313 15.8 186.440313 15.8 
L 57.87 15.8 
Q 55.87 15.8 55.87 17.8 
L 55.87 90.190625 
Q 55.87 92.190625 57.87 92.190625 
z
" style="fill: #ffffff; opacity: 0.8; stroke: #cccccc; stroke-linejoin: miter"/>
    </g>
    <g id="patch_58">
     <path d="M 59.87 27.398438 
L 79.87 27.398438 
L 79.87 20.398438 
L 59.87 20.398438 
z
" style="fill: #add8e6"/>
    </g>
    <g id="text_33">
     <!-- Existing Customers -->
     <g transform="translate(87.87 27.398438) scale(0.1 -0.1)">
      <defs>
       <path id="DejaVuSans-78" d="M 3513 3500 
L 2247 1797 
L 3578 0 
L 2900 0 
L 1881 1375 
L 863 0 
L 184 0 
L 1544 1831 
L 300 3500 
L 978 3500 
L 1906 2253 
L 2834 3500 
L 3513 3500 
z
" transform="scale(0.015625)"/>
       <path id="DejaVuSans-69" d="M 603 3500 
L 1178 3500 
L 1178 0 
L 603 0 
L 603 3500 
z
M 603 4863 
L 1178 4863 
L 1178 4134 
L 603 4134 
L 603 4863 
z
" transform="scale(0.015625)"/>
       <path id="DejaVuSans-67" d="M 2906 1791 
Q 2906 2416 2648 2759 
Q 2391 3103 1925 3103 
Q 1463 3103 1205 2759 
Q 947 2416 947 1791 
Q 947 1169 1205 825 
Q 1463 481 1925 481 
Q 2391 481 2648 825 
Q 2906 1169 2906 1791 
z
M 3481 434 
Q 3481 -459 3084 -895 
Q 2688 -1331 1869 -1331 
Q 1566 -1331 1297 -1286 
Q 1028 -1241 775 -1147 
L 775 -588 
Q 1028 -725 1275 -790 
Q 1522 -856 1778 -856 
Q 2344 -856 2625 -561 
Q 2906 -266 2906 331 
L 2906 616 
Q 2728 306 2450 153 
Q 2172 0 1784 0 
Q 1141 0 747 490 
Q 353 981 353 1791 
Q 353 2603 747 3093 
Q 1141 3584 1784 3584 
Q 2172 3584 2450 3431 
Q 2728 3278 2906 2969 
L 2906 3500 
L 3481 3500 
L 3481 434 
z
" transform="scale(0.015625)"/>
       <path id="DejaVuSans-65" d="M 3597 1894 
L 3597 1613 
L 953 1613 
Q 991 1019 1311 708 
Q 1631 397 2203 397 
Q 2534 397 2845 478 
Q 3156 559 3463 722 
L 3463 178 
Q 3153 47 2828 -22 
Q 2503 -91 2169 -91 
Q 1331 -91 842 396 
Q 353 884 353 1716 
Q 353 2575 817 3079 
Q 1281 3584 2069 3584 
Q 2775 3584 3186 3129 
Q 3597 2675 3597 1894 
z
M 3022 2063 
Q 3016 2534 2758 2815 
Q 2500 3097 2075 3097 
Q 1594 3097 1305 2825 
Q 1016 2553 972 2059 
L 3022 2063 
z
" transform="scale(0.015625)"/>
       <path id="DejaVuSans-72" d="M 2631 2963 
Q 2534 3019 2420 3045 
Q 2306 3072 2169 3072 
Q 1681 3072 1420 2755 
Q 1159 2438 1159 1844 
L 1159 0 
L 581 0 
L 581 3500 
L 1159 3500 
L 1159 2956 
Q 1341 3275 1631 3429 
Q 1922 3584 2338 3584 
Q 2397 3584 2469 3576 
Q 2541 3569 2628 3553 
L 2631 2963 
z
" transform="scale(0.015625)"/>
      </defs>
      <use xlink:href="#DejaVuSans-45"/>
      <use xlink:href="#DejaVuSans-78" x="63.183594"/>
      <use xlink:href="#DejaVuSans-69" x="122.363281"/>
      <use xlink:href="#DejaVuSans-73" x="150.146484"/>
      <use xlink:href="#DejaVuSans-74" x="202.246094"/>
      <use xlink:href="#DejaVuSans-69" x="241.455078"/>
      <use xlink:href="#DejaVuSans-6e" x="269.238281"/>
      <use xlink:href="#DejaVuSans-67" x="332.617188"/>
      <use xlink:href="#DejaVuSans-20" x="396.09375"/>
      <use xlink:href="#DejaVuSans-43" x="427.880859"/>
      <use xlink:href="#DejaVuSans-75" x="497.705078"/>
      <use xlink:href="#DejaVuSans-73" x="561.083984"/>
      <use xlink:href="#DejaVuSans-74" x="613.183594"/>
      <use xlink:href="#DejaVuSans-6f" x="652.392578"/>
      <use xlink:href="#DejaVuSans-6d" x="713.574219"/>
      <use xlink:href="#DejaVuSans-65" x="810.986328"/>
      <use xlink:href="#DejaVuSans-72" x="872.509766"/>
      <use xlink:href="#DejaVuSans-73" x="913.623047"/>
     </g>
    </g>
    <g id="patch_59">
     <path d="M 59.87 42.076562 
L 79.87 42.076562 
L 79.87 35.076562 
L 59.87 35.076562 
z
" style="fill: #1e90ff"/>
    </g>
    <g id="text_34">
     <!-- New Customers -->
     <g transform="translate(87.87 42.076562) scale(0.1 -0.1)">
      <defs>
       <path id="DejaVuSans-4e" d="M 628 4666 
L 1478 4666 
L 3547 763 
L 3547 4666 
L 4159 4666 
L 4159 0 
L 3309 0 
L 1241 3903 
L 1241 0 
L 628 0 
L 628 4666 
z
" transform="scale(0.015625)"/>
       <path id="DejaVuSans-77" d="M 269 3500 
L 844 3500 
L 1563 769 
L 2278 3500 
L 2956 3500 
L 3675 769 
L 4391 3500 
L 4966 3500 
L 4050 0 
L 3372 0 
L 2619 2869 
L 1863 0 
L 1184 0 
L 269 3500 
z
" transform="scale(0.015625)"/>
      </defs>
      <use xlink:href="#DejaVuSans-4e"/>
      <use xlink:href="#DejaVuSans-65" x="74.804688"/>
      <use xlink:href="#DejaVuSans-77" x="136.328125"/>
      <use xlink:href="#DejaVuSans-20" x="218.115234"/>
      <use xlink:href="#DejaVuSans-43" x="249.902344"/>
      <use xlink:href="#DejaVuSans-75" x="319.726562"/>
      <use xlink:href="#DejaVuSans-73" x="383.105469"/>
      <use xlink:href="#DejaVuSans-74" x="435.205078"/>
      <use xlink:href="#DejaVuSans-6f" x="474.414062"/>
      <use xlink:href="#DejaVuSans-6d" x="535.595703"/>
      <use xlink:href="#DejaVuSans-65" x="633.007812"/>
      <use xlink:href="#DejaVuSans-72" x="694.53125"/>
      <use xlink:href="#DejaVuSans-73" x="735.644531"/>
     </g>
    </g>
    <g id="patch_60">
     <path d="M 59.87 56.754687 
L 79.87 56.754687 
L 79.87 49.754687 
L 59.87 49.754687 
z
" style="fill: #ff0000"/>
    </g>
    <g id="text_35">
     <!-- Customers Leaving -->
     <g transform="translate(87.87 56.754687) scale(0.1 -0.1)">
      <defs>
       <path id="DejaVuSans-4c" d="M 628 4666 
L 1259 4666 
L 1259 531 
L 3531 531 
L 3531 0 
L 628 0 
L 628 4666 
z
" transform="scale(0.015625)"/>
       <path id="DejaVuSans-61" d="M 2194 1759 
Q 1497 1759 1228 1600 
Q 959 1441 959 1056 
Q 959 750 1161 570 
Q 1363 391 1709 391 
Q 2188 391 2477 730 
Q 2766 1069 2766 1631 
L 2766 1759 
L 2194 1759 
z
M 3341 1997 
L 3341 0 
L 2766 0 
L 2766 531 
Q 2569 213 2275 61 
Q 1981 -91 1556 -91 
Q 1019 -91 701 211 
Q 384 513 384 1019 
Q 384 1609 779 1909 
Q 1175 2209 1959 2209 
L 2766 2209 
L 2766 2266 
Q 2766 2663 2505 2880 
Q 2244 3097 1772 3097 
Q 1472 3097 1187 3025 
Q 903 2953 641 2809 
L 641 3341 
Q 956 3463 1253 3523 
Q 1550 3584 1831 3584 
Q 2591 3584 2966 3190 
Q 3341 2797 3341 1997 
z
" transform="scale(0.015625)"/>
       <path id="DejaVuSans-76" d="M 191 3500 
L 800 3500 
L 1894 563 
L 2988 3500 
L 3597 3500 
L 2284 0 
L 1503 0 
L 191 3500 
z
" transform="scale(0.015625)"/>
      </defs>
      <use xlink:href="#DejaVuSans-43"/>
      <use xlink:href="#DejaVuSans-75" x="69.824219"/>
      <use xlink:href="#DejaVuSans-73" x="133.203125"/>
      <use xlink:href="#DejaVuSans-74" x="185.302734"/>
      <use xlink:href="#DejaVuSans-6f" x="224.511719"/>
      <use xlink:href="#DejaVuSans-6d" x="285.693359"/>
      <use xlink:href="#DejaVuSans-65" x="383.105469"/>
      <use xlink:href="#DejaVuSans-72" x="444.628906"/>
      <use xlink:href="#DejaVuSans-73" x="485.742188"/>
      <use xlink:href="#DejaVuSans-20" x="537.841797"/>
      <use xlink:href="#DejaVuSans-4c" x="569.628906"/>
      <use xlink:href="#DejaVuSans-65" x="623.591797"/>
      <use xlink:href="#DejaVuSans-61" x="685.115234"/>
      <use xlink:href="#DejaVuSans-76" x="746.394531"/>
      <use xlink:href="#DejaVuSans-69" x="805.574219"/>
      <use xlink:href="#DejaVuSans-6e" x="833.357422"/>
      <use xlink:href="#DejaVuSans-67" x="896.736328"/>
     </g>
    </g>
    <g id="line2d_33">
     <path d="M 59.87 67.932813 
L 69.87 67.932813 
L 79.87 67.932813 
" style="fill: none; stroke: #8b0000; stroke-width: 1.5; stroke-linecap: square"/>
     <g>
      <use xlink:href="#m36af1f0902" x="69.87" y="67.932813" style="fill: #8b0000; stroke: #ffffff; stroke-width: 0.75"/>
     </g>
    </g>
    <g id="text_36">
     <!-- Marketing Cost -->
     <g transform="translate(87.87 71.432813) scale(0.1 -0.1)">
      <defs>
       <path id="DejaVuSans-4d" d="M 628 4666 
L 1569 4666 
L 2759 1491 
L 3956 4666 
L 4897 4666 
L 4897 0 
L 4281 0 
L 4281 4097 
L 3078 897 
L 2444 897 
L 1241 4097 
L 1241 0 
L 628 0 
L 628 4666 
z
" transform="scale(0.015625)"/>
       <path id="DejaVuSans-6b" d="M 581 4863 
L 1159 4863 
L 1159 1991 
L 2875 3500 
L 3609 3500 
L 1753 1863 
L 3688 0 
L 2938 0 
L 1159 1709 
L 1159 0 
L 581 0 
L 581 4863 
z
" transform="scale(0.015625)"/>
      </defs>
      <use xlink:href="#DejaVuSans-4d"/>
      <use xlink:href="#DejaVuSans-61" x="86.279297"/>
      <use xlink:href="#DejaVuSans-72" x="147.558594"/>
      <use xlink:href="#DejaVuSans-6b" x="188.671875"/>
      <use xlink:href="#DejaVuSans-65" x="242.957031"/>
      <use xlink:href="#DejaVuSans-74" x="304.480469"/>
      <use xlink:href="#DejaVuSans-69" x="343.689453"/>
      <use xlink:href="#DejaVuSans-6e" x="371.472656"/>
      <use xlink:href="#DejaVuSans-67" x="434.851562"/>
      <use xlink:href="#DejaVuSans-20" x="498.328125"/>
      <use xlink:href="#DejaVuSans-43" x="530.115234"/>
      <use xlink:href="#DejaVuSans-6f" x="599.939453"/>
      <use xlink:href="#DejaVuSans-73" x="661.121094"/>
      <use xlink:href="#DejaVuSans-74" x="713.220703"/>
     </g>
    </g>
    <g id="line2d_34">
     <path d="M 59.87 82.610938 
L 69.87 82.610938 
L 79.87 82.610938 
" style="fill: none; stroke: #008000; stroke-width: 1.5; stroke-linecap: square"/>
     <g>
      <use xlink:href="#m5eb1568896" x="69.87" y="82.610938" style="fill: #008000; stroke: #ffffff; stroke-width: 0.75"/>
     </g>
    </g>
    <g id="text_37">
     <!-- Sales Cost -->
     <g transform="translate(87.87 86.110938) scale(0.1 -0.1)">
      <defs>
       <path id="DejaVuSans-53" d="M 3425 4513 
L 3425 3897 
Q 3066 4069 2747 4153 
Q 2428 4238 2131 4238 
Q 1616 4238 1336 4038 
Q 1056 3838 1056 3469 
Q 1056 3159 1242 3001 
Q 1428 2844 1947 2747 
L 2328 2669 
Q 3034 2534 3370 2195 
Q 3706 1856 3706 1288 
Q 3706 609 3251 259 
Q 2797 -91 1919 -91 
Q 1588 -91 1214 -16 
Q 841 59 441 206 
L 441 856 
Q 825 641 1194 531 
Q 1563 422 1919 422 
Q 2459 422 2753 634 
Q 3047 847 3047 1241 
Q 3047 1584 2836 1778 
Q 2625 1972 2144 2069 
L 1759 2144 
Q 1053 2284 737 2584 
Q 422 2884 422 3419 
Q 422 4038 858 4394 
Q 1294 4750 2059 4750 
Q 2388 4750 2728 4690 
Q 3069 4631 3425 4513 
z
" transform="scale(0.015625)"/>
       <path id="DejaVuSans-6c" d="M 603 4863 
L 1178 4863 
L 1178 0 
L 603 0 
L 603 4863 
z
" transform="scale(0.015625)"/>
      </defs>
      <use xlink:href="#DejaVuSans-53"/>
      <use xlink:href="#DejaVuSans-61" x="63.476562"/>
      <use xlink:href="#DejaVuSans-6c" x="124.755859"/>
      <use xlink:href="#DejaVuSans-65" x="152.539062"/>
      <use xlink:href="#DejaVuSans-73" x="214.0625"/>
      <use xlink:href="#DejaVuSans-20" x="266.162109"/>
      <use xlink:href="#DejaVuSans-43" x="297.949219"/>
      <use xlink:href="#DejaVuSans-6f" x="367.773438"/>
      <use xlink:href="#DejaVuSans-73" x="428.955078"/>
      <use xlink:href="#DejaVuSans-74" x="481.054688"/>
     </g>
    </g>
   </g>
  </g>
 </g>
 <defs>
  <clipPath id="pbf81d92071">
   <rect x="50.87" y="10.8" width="480.56" height="221.598071"/>
  </clipPath>
 </defs>
</svg>
